# xmcd CD database file
# Copyright (C) 1997 Ti Kan
# 
# Track frame offsets:
#     200
#     13540
#     25125
#     40007
#     55002
#     69962
#     82837
#     94780
#     108917
#     119620
#     134012
#     146140
#     164037
#     176210
#     191807
#     203097
# 
# Disc length: 2912 seconds
# 
# Revision: 1
# Processed by: cddbd v1.4b41PL1 Copyright (c) Steve Scherf et al.
# Submitted via: DiscPlay 4.0.4
# 
DISCID=e00b5e10
DTITLE=Elmore James - Every Day I Have The Blues
DYEAR=1900
DGENRE=
TTITLE0=Dust My Broom
TTITLE1=Shake Your Moneymaker
TTITLE2=It Hurts Me Too
TTITLE3=Every Day I Have The Blues
TTITLE4=Pickin'  The Blues
TTITLE5=Anna Lee
TTITLE6=Mean Mistreatin' Mama
TTITLE7=Up Jumped Elmore
TTITLE8=Sunnyland Train
TTITLE9=My Baby's Gone
TTITLE10=Bleeding Heart
TTITLE11=She's Got To Go
TTITLE12=Talk To Me Baby
TTITLE13=I Believe
TTITLE14=Look On Yonder Wall
TTITLE15=Twelve Year Old Boy
EXTD=
EXTT0=
EXTT1=
EXTT2=
EXTT3=
EXTT4=
EXTT5=
EXTT6=
EXTT7=
EXTT8=
EXTT9=
EXTT10=
EXTT11=
EXTT12=
EXTT13=
EXTT14=
EXTT15=
PLAYORDER=
